<svg width="32" height="32" viewBox="0 0 32 32" fill="none" xmlns="http://www.w3.org/2000/svg">
<path d="M31.8818 12.0593C31.7388 11.5926 31.4632 11.1816 31.0911 10.8802C30.719 10.5788 30.2678 10.4011 29.7966 10.3704L21.313 9.76296L18.1709 1.54074C17.9993 1.088 17.7007 0.699117 17.3136 0.424421C16.9266 0.149725 16.469 0.00187094 16 0C15.531 0.00187094 15.0734 0.149725 14.6864 0.424421C14.2993 0.699117 14.0007 1.088 13.8291 1.54074L10.6299 9.80741L2.20341 10.3704C1.73282 10.4031 1.28253 10.5816 0.91078 10.8827C0.539033 11.1837 0.262939 11.5936 0.118214 12.0593C-0.0304054 12.532 -0.0390887 13.0401 0.0932838 13.5181C0.225656 13.996 0.493015 14.4219 0.860888 14.7407L7.345 20.4296L5.4169 28.2963C5.2835 28.8285 5.30751 29.39 5.4858 29.9078C5.6641 30.4256 5.98843 30.8759 6.41666 31.2C6.83231 31.5094 7.32753 31.6832 7.83893 31.699C8.35034 31.7149 8.85466 31.5721 9.28737 31.2889L15.9857 26.8889H16.0143L23.2268 31.6148C23.5968 31.8642 24.0281 31.9979 24.4693 32C24.8296 31.9971 25.1844 31.9085 25.5065 31.7411C25.8286 31.5736 26.1094 31.3318 26.3274 31.0342C26.5453 30.7367 26.6945 30.3912 26.7636 30.0244C26.8327 29.6576 26.8198 29.2793 26.7259 28.9185L24.6836 20.3111L31.1391 14.7407C31.507 14.4219 31.7743 13.996 31.9067 13.5181C32.0391 13.0401 32.0304 12.532 31.8818 12.0593Z" fill="#50B2C0"/>
</svg>
