<svg width="262" height="58" viewBox="0 0 262 58" fill="none" xmlns="http://www.w3.org/2000/svg">
<g opacity="0.9">
<path d="M45.9446 41.6528C45.8776 41.434 45.7484 41.2414 45.5739 41.1001C45.3995 40.9588 45.188 40.8755 44.9672 40.8611L40.9905 40.5764L39.5176 36.7222C39.4372 36.51 39.2972 36.3277 39.1158 36.1989C38.9343 36.0702 38.7198 36.0009 38.5 36C38.2802 36.0009 38.0657 36.0702 37.8842 36.1989C37.7028 36.3277 37.5628 36.51 37.4824 36.7222L35.9828 40.5972L32.0328 40.8611C31.8123 40.8765 31.6012 40.9601 31.4269 41.1012C31.2527 41.2424 31.1233 41.4345 31.0554 41.6528C30.9857 41.8744 30.9817 42.1126 31.0437 42.3366C31.1058 42.5606 31.2311 42.7603 31.4035 42.9097L34.443 45.5764L33.5392 49.2639C33.4766 49.5133 33.4879 49.7765 33.5715 50.0193C33.655 50.262 33.8071 50.4731 34.0078 50.625C34.2026 50.7701 34.4348 50.8515 34.6745 50.8589C34.9142 50.8664 35.1506 50.7994 35.3535 50.6667L38.4933 48.6042H38.5067L41.8876 50.8194C42.061 50.9364 42.2632 50.999 42.47 51C42.6389 50.9986 42.8052 50.9571 42.9562 50.8786C43.1072 50.8001 43.2388 50.6868 43.3409 50.5473C43.4431 50.4078 43.5131 50.2459 43.5454 50.0739C43.5778 49.902 43.5718 49.7247 43.5278 49.5556L42.5704 45.5208L45.5965 42.9097C45.7689 42.7603 45.8942 42.5606 45.9563 42.3366C46.0183 42.1126 46.0143 41.8744 45.9446 41.6528Z" fill="#50B2C0"/>
<path d="M36.5 9C38.7 9 40.5 10.8 40.5 13V31.16L38.5 31L36.5 31.16V13H26.5V29L21.5 24.5L16.5 29V13H12.5V45H26.66C26.9 46.44 27.4 47.78 28.1 49H12.5C10.3 49 8.5 47.2 8.5 45V13C8.5 10.8 10.3 9 12.5 9H36.5Z" fill="#8381D9"/>
<path d="M63.3674 41V15.62H67.2194L76.7954 33.296H75.6434L85.1834 15.62H88.9634V41H84.7874V22.46H85.5794L77.5154 37.148H74.8154L66.6794 22.424H67.5434V41H63.3674ZM99.9133 41.36C98.6413 41.36 97.5013 41.12 96.4933 40.64C95.5093 40.136 94.7293 39.464 94.1533 38.624C93.6013 37.784 93.3253 36.836 93.3253 35.78C93.3253 34.484 93.6613 33.464 94.3333 32.72C95.0053 31.952 96.0973 31.4 97.6093 31.064C99.1213 30.728 101.149 30.56 103.693 30.56H105.493V33.152H103.729C102.601 33.152 101.653 33.2 100.885 33.296C100.117 33.368 99.4933 33.5 99.0133 33.692C98.5573 33.86 98.2213 34.1 98.0053 34.412C97.8133 34.724 97.7173 35.108 97.7173 35.564C97.7173 36.356 97.9933 37.004 98.5453 37.508C99.0973 38.012 99.8653 38.264 100.849 38.264C101.641 38.264 102.337 38.084 102.937 37.724C103.561 37.34 104.053 36.824 104.413 36.176C104.773 35.528 104.953 34.784 104.953 33.944V29.804C104.953 28.604 104.689 27.74 104.161 27.212C103.633 26.684 102.745 26.42 101.497 26.42C100.513 26.42 99.5053 26.576 98.4733 26.888C97.4413 27.176 96.3973 27.632 95.3413 28.256L94.0453 25.196C94.6693 24.764 95.4013 24.392 96.2413 24.08C97.1053 23.744 98.0053 23.492 98.9413 23.324C99.9013 23.132 100.801 23.036 101.641 23.036C103.369 23.036 104.785 23.3 105.889 23.828C107.017 24.356 107.857 25.16 108.409 26.24C108.961 27.296 109.237 28.664 109.237 30.344V41H105.025V37.256H105.313C105.145 38.096 104.809 38.828 104.305 39.452C103.825 40.052 103.213 40.52 102.469 40.856C101.725 41.192 100.873 41.36 99.9133 41.36ZM113.805 41V23.396H118.197V26.924H117.801C118.329 25.652 119.145 24.692 120.249 24.044C121.377 23.372 122.649 23.036 124.065 23.036C125.481 23.036 126.645 23.3 127.557 23.828C128.469 24.356 129.153 25.16 129.609 26.24C130.065 27.296 130.293 28.64 130.293 30.272V41H125.793V30.488C125.793 29.576 125.673 28.832 125.433 28.256C125.217 27.68 124.869 27.26 124.389 26.996C123.933 26.708 123.345 26.564 122.625 26.564C121.761 26.564 121.005 26.756 120.357 27.14C119.709 27.5 119.205 28.028 118.845 28.724C118.485 29.396 118.305 30.188 118.305 31.1V41H113.805ZM143.071 47.84C141.439 47.84 139.903 47.648 138.463 47.264C137.047 46.904 135.799 46.34 134.719 45.572L136.015 42.44C136.687 42.872 137.395 43.232 138.139 43.52C138.883 43.832 139.639 44.06 140.407 44.204C141.175 44.348 141.943 44.42 142.711 44.42C144.319 44.42 145.519 44.024 146.311 43.232C147.127 42.464 147.535 41.312 147.535 39.776V36.536H147.859C147.499 37.76 146.743 38.744 145.591 39.488C144.463 40.208 143.179 40.568 141.739 40.568C140.155 40.568 138.775 40.208 137.599 39.488C136.423 38.744 135.511 37.712 134.863 36.392C134.215 35.072 133.891 33.536 133.891 31.784C133.891 30.032 134.215 28.508 134.863 27.212C135.511 25.892 136.423 24.872 137.599 24.152C138.775 23.408 140.155 23.036 141.739 23.036C143.227 23.036 144.523 23.408 145.627 24.152C146.755 24.872 147.487 25.832 147.823 27.032H147.535V23.396H151.927V39.236C151.927 41.132 151.591 42.716 150.919 43.988C150.247 45.284 149.251 46.244 147.931 46.868C146.611 47.516 144.991 47.84 143.071 47.84ZM142.963 37.148C144.355 37.148 145.459 36.668 146.275 35.708C147.091 34.748 147.499 33.44 147.499 31.784C147.499 30.128 147.091 28.832 146.275 27.896C145.459 26.936 144.355 26.456 142.963 26.456C141.571 26.456 140.467 26.936 139.651 27.896C138.835 28.832 138.427 30.128 138.427 31.784C138.427 33.44 138.835 34.748 139.651 35.708C140.467 36.668 141.571 37.148 142.963 37.148ZM162.386 41.36C161.114 41.36 159.974 41.12 158.966 40.64C157.982 40.136 157.202 39.464 156.626 38.624C156.074 37.784 155.798 36.836 155.798 35.78C155.798 34.484 156.134 33.464 156.806 32.72C157.478 31.952 158.57 31.4 160.082 31.064C161.594 30.728 163.622 30.56 166.166 30.56H167.966V33.152H166.202C165.074 33.152 164.126 33.2 163.358 33.296C162.59 33.368 161.966 33.5 161.486 33.692C161.03 33.86 160.694 34.1 160.478 34.412C160.286 34.724 160.19 35.108 160.19 35.564C160.19 36.356 160.466 37.004 161.018 37.508C161.57 38.012 162.338 38.264 163.322 38.264C164.114 38.264 164.81 38.084 165.41 37.724C166.034 37.34 166.526 36.824 166.886 36.176C167.246 35.528 167.426 34.784 167.426 33.944V29.804C167.426 28.604 167.162 27.74 166.634 27.212C166.106 26.684 165.218 26.42 163.97 26.42C162.986 26.42 161.978 26.576 160.946 26.888C159.914 27.176 158.87 27.632 157.814 28.256L156.518 25.196C157.142 24.764 157.874 24.392 158.714 24.08C159.578 23.744 160.478 23.492 161.414 23.324C162.374 23.132 163.274 23.036 164.114 23.036C165.842 23.036 167.258 23.3 168.362 23.828C169.49 24.356 170.33 25.16 170.882 26.24C171.434 27.296 171.71 28.664 171.71 30.344V41H167.498V37.256H167.786C167.618 38.096 167.282 38.828 166.778 39.452C166.298 40.052 165.686 40.52 164.942 40.856C164.198 41.192 163.346 41.36 162.386 41.36ZM185.458 41.36C184.138 41.36 182.866 41.24 181.642 41C180.442 40.784 179.326 40.46 178.294 40.028C177.286 39.596 176.386 39.08 175.594 38.48L176.998 34.844C177.79 35.396 178.618 35.876 179.482 36.284C180.37 36.668 181.306 36.968 182.29 37.184C183.298 37.376 184.354 37.472 185.458 37.472C187.354 37.472 188.734 37.16 189.598 36.536C190.462 35.888 190.894 35.06 190.894 34.052C190.894 33.5 190.762 33.032 190.498 32.648C190.234 32.24 189.802 31.892 189.202 31.604C188.602 31.316 187.81 31.076 186.826 30.884L182.866 30.056C180.586 29.576 178.882 28.772 177.754 27.644C176.65 26.492 176.098 24.98 176.098 23.108C176.098 21.524 176.518 20.144 177.358 18.968C178.198 17.792 179.362 16.88 180.85 16.232C182.338 15.584 184.054 15.26 185.998 15.26C187.15 15.26 188.254 15.38 189.31 15.62C190.39 15.836 191.374 16.172 192.262 16.628C193.174 17.06 193.966 17.588 194.638 18.212L193.234 21.668C192.226 20.828 191.122 20.204 189.922 19.796C188.722 19.364 187.402 19.148 185.962 19.148C184.858 19.148 183.91 19.304 183.118 19.616C182.326 19.928 181.714 20.372 181.282 20.948C180.874 21.5 180.67 22.16 180.67 22.928C180.67 23.792 180.958 24.488 181.534 25.016C182.11 25.52 183.094 25.916 184.486 26.204L188.41 27.032C190.786 27.536 192.55 28.328 193.702 29.408C194.878 30.488 195.466 31.928 195.466 33.728C195.466 35.24 195.058 36.572 194.242 37.724C193.426 38.876 192.262 39.776 190.75 40.424C189.262 41.048 187.498 41.36 185.458 41.36ZM206.877 41.36C204.525 41.36 202.773 40.772 201.621 39.596C200.469 38.42 199.893 36.704 199.893 34.448V26.78H196.509V23.396H199.893V18.14H204.393V23.396H209.721V26.78H204.393V34.196C204.393 35.348 204.645 36.212 205.149 36.788C205.653 37.364 206.469 37.652 207.597 37.652C207.933 37.652 208.281 37.616 208.641 37.544C209.001 37.448 209.373 37.352 209.757 37.256L210.441 40.568C210.009 40.808 209.457 41 208.785 41.144C208.137 41.288 207.501 41.36 206.877 41.36ZM218.425 41.36C217.153 41.36 216.013 41.12 215.005 40.64C214.021 40.136 213.241 39.464 212.665 38.624C212.113 37.784 211.837 36.836 211.837 35.78C211.837 34.484 212.173 33.464 212.845 32.72C213.517 31.952 214.609 31.4 216.121 31.064C217.633 30.728 219.661 30.56 222.205 30.56H224.005V33.152H222.241C221.113 33.152 220.165 33.2 219.397 33.296C218.629 33.368 218.005 33.5 217.525 33.692C217.069 33.86 216.733 34.1 216.517 34.412C216.325 34.724 216.229 35.108 216.229 35.564C216.229 36.356 216.505 37.004 217.057 37.508C217.609 38.012 218.377 38.264 219.361 38.264C220.153 38.264 220.849 38.084 221.449 37.724C222.073 37.34 222.565 36.824 222.925 36.176C223.285 35.528 223.465 34.784 223.465 33.944V29.804C223.465 28.604 223.201 27.74 222.673 27.212C222.145 26.684 221.257 26.42 220.009 26.42C219.025 26.42 218.017 26.576 216.985 26.888C215.953 27.176 214.909 27.632 213.853 28.256L212.557 25.196C213.181 24.764 213.913 24.392 214.753 24.08C215.617 23.744 216.517 23.492 217.453 23.324C218.413 23.132 219.313 23.036 220.153 23.036C221.881 23.036 223.297 23.3 224.401 23.828C225.529 24.356 226.369 25.16 226.921 26.24C227.473 27.296 227.749 28.664 227.749 30.344V41H223.537V37.256H223.825C223.657 38.096 223.321 38.828 222.817 39.452C222.337 40.052 221.725 40.52 220.981 40.856C220.237 41.192 219.385 41.36 218.425 41.36ZM232.317 41V23.396H236.709V27.644H236.349C236.685 26.204 237.345 25.112 238.329 24.368C239.313 23.6 240.621 23.156 242.253 23.036L243.621 22.928L243.909 26.744L241.317 26.996C239.853 27.14 238.749 27.596 238.005 28.364C237.261 29.108 236.889 30.164 236.889 31.532V41H232.317ZM252.682 41.36C251.698 41.36 250.738 41.276 249.802 41.108C248.89 40.94 248.05 40.712 247.282 40.424C246.514 40.112 245.842 39.728 245.266 39.272L246.418 36.32C247.018 36.704 247.666 37.04 248.362 37.328C249.058 37.616 249.778 37.832 250.522 37.976C251.266 38.12 251.998 38.192 252.718 38.192C253.87 38.192 254.722 38 255.274 37.616C255.85 37.208 256.138 36.68 256.138 36.032C256.138 35.48 255.946 35.06 255.562 34.772C255.202 34.46 254.65 34.232 253.906 34.088L250.306 33.404C248.818 33.116 247.678 32.576 246.886 31.784C246.118 30.968 245.734 29.924 245.734 28.652C245.734 27.5 246.046 26.504 246.67 25.664C247.318 24.824 248.206 24.176 249.334 23.72C250.462 23.264 251.758 23.036 253.222 23.036C254.062 23.036 254.878 23.12 255.67 23.288C256.462 23.432 257.206 23.66 257.902 23.972C258.622 24.26 259.246 24.644 259.774 25.124L258.55 28.076C258.094 27.692 257.566 27.368 256.966 27.104C256.366 26.816 255.742 26.6 255.094 26.456C254.47 26.288 253.858 26.204 253.258 26.204C252.082 26.204 251.206 26.408 250.63 26.816C250.078 27.224 249.802 27.764 249.802 28.436C249.802 28.94 249.97 29.36 250.306 29.696C250.642 30.032 251.158 30.26 251.854 30.38L255.454 31.064C257.014 31.352 258.19 31.88 258.982 32.648C259.798 33.416 260.206 34.448 260.206 35.744C260.206 36.92 259.894 37.928 259.27 38.768C258.646 39.608 257.77 40.256 256.642 40.712C255.514 41.144 254.194 41.36 252.682 41.36Z" fill="url(#paint0_linear_517_8)"/>
</g>
<defs>
<linearGradient id="paint0_linear_517_8" x1="60.5" y1="29.5686" x2="261.5" y2="29.5686" gradientUnits="userSpaceOnUse">
<stop stop-color="#7FD1CC"/>
<stop offset="1" stop-color="#9694F5"/>
</linearGradient>
</defs>
</svg>
